<svg width="54" height="54" viewBox="0 0 54 54" fill="none" xmlns="http://www.w3.org/2000/svg">
<path fill-rule="evenodd" clip-rule="evenodd" d="M25.2409 17.0766C25.2085 17.0659 25.1732 17.0803 25.1576 17.1105C25.1282 17.1676 25.0936 17.2218 25.0542 17.2724L20.2178 23.4907C20.0214 23.7432 19.7195 23.8908 19.3997 23.8908H16.636C16.4452 23.8908 16.2905 24.0455 16.2905 24.2363V29.7637C16.2905 29.9545 16.4452 30.1092 16.636 30.1092H19.3997C19.7195 30.1092 20.0214 30.2568 20.2178 30.5093L25.0542 36.7276C25.0936 36.7782 25.1282 36.8324 25.1576 36.8895C25.1732 36.9197 25.2085 36.9341 25.2409 36.9234C25.2732 36.9126 25.2928 36.8799 25.2871 36.8463C25.2774 36.789 25.2725 36.731 25.2725 36.6729V17.3271C25.2725 17.269 25.2774 17.211 25.2871 17.1537C25.2928 17.1201 25.2732 17.0874 25.2409 17.0766ZM23.3685 16.0637C23.8759 15.1919 24.9298 14.788 25.8963 15.1102C26.8663 15.4335 27.4679 16.3945 27.3453 17.4002V36.5998C27.4679 37.6055 26.8663 38.5665 25.8963 38.8898C24.9298 39.212 23.8759 38.8081 23.3685 37.9363L18.8928 32.1819H16.636C15.3005 32.1819 14.2178 31.0992 14.2178 29.7637V24.2363C14.2178 22.9008 15.3005 21.8181 16.636 21.8181H18.8928L23.3685 16.0637ZM32.4853 23.5034C32.8901 23.0986 33.5463 23.0986 33.951 23.5034L35.9818 25.5342L38.0127 23.5034C38.4174 23.0986 39.0736 23.0986 39.4784 23.5034C39.8831 23.9081 39.8831 24.5643 39.4784 24.969L37.4475 26.9999L39.4784 29.0307C39.8831 29.4355 39.8831 30.0917 39.4784 30.4964C39.0736 30.9011 38.4174 30.9011 38.0127 30.4964L35.9818 28.4655L33.951 30.4964C33.5463 30.9011 32.8901 30.9011 32.4853 30.4964C32.0806 30.0917 32.0806 29.4355 32.4853 29.0307L34.5162 26.9999L32.4853 24.969C32.0806 24.5643 32.0806 23.9081 32.4853 23.5034Z" fill="white"/>
</svg>
