<svg width="26" height="26" viewBox="0 0 26 26" fill="none" xmlns="http://www.w3.org/2000/svg">
<path fill-rule="evenodd" clip-rule="evenodd" d="M12.8093 3.05837C7.80713 3.13072 3.6378 6.90865 3.07428 11.8795C3.0103 12.4439 2.50089 12.8496 1.93648 12.7856C1.37208 12.7216 0.966406 12.2122 1.03039 11.6478C1.7105 5.6485 6.74245 1.08892 12.7796 1.0016C18.8167 0.914276 23.9784 5.32641 24.8317 11.3035C25.6851 17.2807 21.9642 22.961 16.1438 24.5665C11.2251 25.9233 6.10179 24.0129 3.22522 20.0271L3.29607 24.0858C3.30598 24.6537 2.85362 25.1221 2.28568 25.132C1.71775 25.1419 1.24931 24.6896 1.2394 24.1216L1.11973 17.2661C1.10982 16.6981 1.56218 16.2297 2.13012 16.2198L2.79171 16.2082C2.80751 16.2076 2.82328 16.2073 2.83903 16.2074L8.98569 16.1001C9.55362 16.0902 10.0221 16.5426 10.032 17.1105C10.0419 17.6784 9.58952 18.1469 9.02159 18.1568L4.50052 18.2357C6.78751 21.9338 11.287 23.7724 15.5969 22.5836C20.4194 21.2533 23.5024 16.5468 22.7954 11.5943C22.0883 6.64178 17.8115 2.98602 12.8093 3.05837Z" fill="black" stroke="black" stroke-width="0.5" stroke-linecap="round" stroke-linejoin="round"/>
</svg>
